<svg width="1920" height="1080" viewBox="0 0 1920 1080" fill="none" xmlns="http://www.w3.org/2000/svg">
  <rect width="1920" height="1080" fill="#020617"/>
  <rect width="1920" height="1080" fill="url(#night)"/>
  <ellipse cx="960" cy="160" rx="860" ry="300" fill="url(#halo)" opacity="0.56"/>
  <circle cx="1500" cy="190" r="78" fill="url(#moon)" opacity="0.75"/>
  <g opacity="0.85">
    <circle cx="240" cy="230" r="2" fill="#E2E8F0"/>
    <circle cx="430" cy="170" r="1.8" fill="#E2E8F0"/>
    <circle cx="620" cy="250" r="1.8" fill="#E2E8F0"/>
    <circle cx="790" cy="145" r="1.6" fill="#E2E8F0"/>
    <circle cx="940" cy="220" r="1.8" fill="#E2E8F0"/>
    <circle cx="1140" cy="170" r="1.9" fill="#E2E8F0"/>
    <circle cx="1290" cy="260" r="1.7" fill="#E2E8F0"/>
    <circle cx="1610" cy="120" r="1.8" fill="#E2E8F0"/>
    <circle cx="1750" cy="210" r="1.6" fill="#E2E8F0"/>
  </g>
  <rect y="760" width="1920" height="320" fill="url(#horizon)" opacity="0.75"/>
  <rect width="1920" height="1080" fill="url(#grain)" opacity="0.08"/>
  <defs>
    <linearGradient id="night" x1="0" y1="0" x2="1920" y2="1080" gradientUnits="userSpaceOnUse">
      <stop stop-color="#030A1E"/>
      <stop offset="0.55" stop-color="#070F2D"/>
      <stop offset="1" stop-color="#0A1639"/>
    </linearGradient>
    <radialGradient id="halo" cx="0" cy="0" r="1" gradientUnits="userSpaceOnUse" gradientTransform="translate(960 160) rotate(90) scale(300 860)">
      <stop stop-color="#60A5FA" stop-opacity="0.25"/>
      <stop offset="1" stop-color="#60A5FA" stop-opacity="0"/>
    </radialGradient>
    <radialGradient id="moon" cx="0" cy="0" r="1" gradientUnits="userSpaceOnUse" gradientTransform="translate(1500 190) rotate(90) scale(78)">
      <stop stop-color="#E2E8F0"/>
      <stop offset="1" stop-color="#E2E8F0" stop-opacity="0"/>
    </radialGradient>
    <linearGradient id="horizon" x1="960" y1="760" x2="960" y2="1080" gradientUnits="userSpaceOnUse">
      <stop stop-color="#0F172A" stop-opacity="0"/>
      <stop offset="1" stop-color="#020617"/>
    </linearGradient>
    <pattern id="grain" x="0" y="0" width="130" height="130" patternUnits="userSpaceOnUse">
      <circle cx="11" cy="9" r="1" fill="#FFFFFF"/>
      <circle cx="30" cy="23" r="1" fill="#FFFFFF"/>
      <circle cx="57" cy="14" r="1" fill="#FFFFFF"/>
      <circle cx="82" cy="28" r="1" fill="#FFFFFF"/>
      <circle cx="104" cy="18" r="1" fill="#FFFFFF"/>
      <circle cx="17" cy="44" r="1" fill="#FFFFFF"/>
      <circle cx="41" cy="39" r="1" fill="#FFFFFF"/>
      <circle cx="67" cy="50" r="1" fill="#FFFFFF"/>
      <circle cx="96" cy="42" r="1" fill="#FFFFFF"/>
      <circle cx="121" cy="53" r="1" fill="#FFFFFF"/>
    </pattern>
  </defs>
</svg>
