<svg width="1920" height="1080" viewBox="0 0 1920 1080" fill="none" xmlns="http://www.w3.org/2000/svg">
  <rect width="1920" height="1080" fill="#041026"/>
  <rect width="1920" height="1080" fill="url(#sea)"/>
  <ellipse cx="960" cy="180" rx="980" ry="340" fill="url(#moonlight)" opacity="0.62"/>
  <ellipse cx="960" cy="980" rx="1040" ry="280" fill="url(#deepwater)" opacity="0.72"/>
  <path d="M0 720C180 700 320 760 500 740C690 720 770 640 980 652C1180 664 1280 760 1480 742C1660 726 1760 680 1920 706V1080H0V720Z" fill="#06203D" opacity="0.55"/>
  <path d="M0 780C200 760 360 826 560 802C740 780 840 712 1040 720C1260 728 1350 824 1540 804C1700 790 1810 742 1920 756V1080H0V780Z" fill="#0A2E57" opacity="0.42"/>
  <rect width="1920" height="1080" fill="url(#grain)" opacity="0.1"/>
  <defs>
    <linearGradient id="sea" x1="0" y1="0" x2="1920" y2="1080" gradientUnits="userSpaceOnUse">
      <stop stop-color="#06142D"/>
      <stop offset="0.5" stop-color="#082245"/>
      <stop offset="1" stop-color="#0A305E"/>
    </linearGradient>
    <radialGradient id="moonlight" cx="0" cy="0" r="1" gradientUnits="userSpaceOnUse" gradientTransform="translate(960 180) rotate(90) scale(340 980)">
      <stop stop-color="#7DD3FC" stop-opacity="0.34"/>
      <stop offset="1" stop-color="#7DD3FC" stop-opacity="0"/>
    </radialGradient>
    <radialGradient id="deepwater" cx="0" cy="0" r="1" gradientUnits="userSpaceOnUse" gradientTransform="translate(960 980) rotate(90) scale(280 1040)">
      <stop stop-color="#1D4ED8" stop-opacity="0.3"/>
      <stop offset="1" stop-color="#1D4ED8" stop-opacity="0"/>
    </radialGradient>
    <pattern id="grain" x="0" y="0" width="140" height="140" patternUnits="userSpaceOnUse">
      <circle cx="10" cy="8" r="1" fill="#FFFFFF"/>
      <circle cx="36" cy="17" r="1" fill="#FFFFFF"/>
      <circle cx="63" cy="11" r="1" fill="#FFFFFF"/>
      <circle cx="94" cy="22" r="1" fill="#FFFFFF"/>
      <circle cx="121" cy="16" r="1" fill="#FFFFFF"/>
      <circle cx="18" cy="43" r="1" fill="#FFFFFF"/>
      <circle cx="48" cy="36" r="1" fill="#FFFFFF"/>
      <circle cx="79" cy="47" r="1" fill="#FFFFFF"/>
      <circle cx="110" cy="41" r="1" fill="#FFFFFF"/>
      <circle cx="28" cy="69" r="1" fill="#FFFFFF"/>
      <circle cx="60" cy="77" r="1" fill="#FFFFFF"/>
      <circle cx="96" cy="71" r="1" fill="#FFFFFF"/>
      <circle cx="130" cy="78" r="1" fill="#FFFFFF"/>
      <circle cx="20" cy="102" r="1" fill="#FFFFFF"/>
      <circle cx="52" cy="93" r="1" fill="#FFFFFF"/>
      <circle cx="86" cy="106" r="1" fill="#FFFFFF"/>
      <circle cx="117" cy="99" r="1" fill="#FFFFFF"/>
      <circle cx="38" cy="124" r="1" fill="#FFFFFF"/>
      <circle cx="72" cy="132" r="1" fill="#FFFFFF"/>
      <circle cx="108" cy="126" r="1" fill="#FFFFFF"/>
    </pattern>
  </defs>
</svg>
