<svg width="1920" height="1080" viewBox="0 0 1920 1080" fill="none" xmlns="http://www.w3.org/2000/svg">
  <rect width="1920" height="1080" fill="#03120D"/>
  <rect width="1920" height="1080" fill="url(#forest-bg)"/>
  <ellipse cx="960" cy="170" rx="900" ry="340" fill="url(#mist-top)" opacity="0.68"/>
  <ellipse cx="960" cy="920" rx="980" ry="260" fill="url(#mist-bottom)" opacity="0.7"/>
  <ellipse cx="420" cy="530" rx="360" ry="230" fill="url(#left-glow)" opacity="0.42"/>
  <ellipse cx="1530" cy="500" rx="350" ry="230" fill="url(#right-glow)" opacity="0.38"/>
  <g opacity="0.38">
    <polygon points="180,1080 430,340 680,1080" fill="#0B241B"/>
    <polygon points="420,1080 690,280 960,1080" fill="#102F23"/>
    <polygon points="760,1080 1020,300 1280,1080" fill="#0E2A20"/>
    <polygon points="1080,1080 1360,320 1640,1080" fill="#123528"/>
    <polygon points="1380,1080 1650,360 1920,1080" fill="#143B2C"/>
    <polygon points="0,1080 220,420 440,1080" fill="#0D281E"/>
  </g>
  <rect width="1920" height="1080" fill="url(#grain)" opacity="0.1"/>
  <defs>
    <linearGradient id="forest-bg" x1="0" y1="0" x2="1920" y2="1080" gradientUnits="userSpaceOnUse">
      <stop stop-color="#041912"/>
      <stop offset="0.48" stop-color="#07241A"/>
      <stop offset="1" stop-color="#0D3628"/>
    </linearGradient>
    <radialGradient id="mist-top" cx="0" cy="0" r="1" gradientUnits="userSpaceOnUse" gradientTransform="translate(960 170) rotate(90) scale(340 900)">
      <stop stop-color="#8EE5B9" stop-opacity="0.34"/>
      <stop offset="1" stop-color="#8EE5B9" stop-opacity="0"/>
    </radialGradient>
    <radialGradient id="mist-bottom" cx="0" cy="0" r="1" gradientUnits="userSpaceOnUse" gradientTransform="translate(960 920) rotate(90) scale(260 980)">
      <stop stop-color="#0F5132" stop-opacity="0.32"/>
      <stop offset="1" stop-color="#0F5132" stop-opacity="0"/>
    </radialGradient>
    <radialGradient id="left-glow" cx="0" cy="0" r="1" gradientUnits="userSpaceOnUse" gradientTransform="translate(420 530) rotate(90) scale(230 360)">
      <stop stop-color="#34D399" stop-opacity="0.3"/>
      <stop offset="1" stop-color="#34D399" stop-opacity="0"/>
    </radialGradient>
    <radialGradient id="right-glow" cx="0" cy="0" r="1" gradientUnits="userSpaceOnUse" gradientTransform="translate(1530 500) rotate(90) scale(230 350)">
      <stop stop-color="#22C55E" stop-opacity="0.26"/>
      <stop offset="1" stop-color="#22C55E" stop-opacity="0"/>
    </radialGradient>
    <pattern id="grain" x="0" y="0" width="120" height="120" patternUnits="userSpaceOnUse">
      <circle cx="8" cy="7" r="1" fill="#FFFFFF"/>
      <circle cx="22" cy="19" r="1" fill="#FFFFFF"/>
      <circle cx="41" cy="16" r="1" fill="#FFFFFF"/>
      <circle cx="63" cy="10" r="1" fill="#FFFFFF"/>
      <circle cx="79" cy="21" r="1" fill="#FFFFFF"/>
      <circle cx="98" cy="15" r="1" fill="#FFFFFF"/>
      <circle cx="112" cy="27" r="1" fill="#FFFFFF"/>
      <circle cx="14" cy="42" r="1" fill="#FFFFFF"/>
      <circle cx="31" cy="35" r="1" fill="#FFFFFF"/>
      <circle cx="52" cy="47" r="1" fill="#FFFFFF"/>
      <circle cx="74" cy="39" r="1" fill="#FFFFFF"/>
      <circle cx="87" cy="49" r="1" fill="#FFFFFF"/>
      <circle cx="109" cy="44" r="1" fill="#FFFFFF"/>
      <circle cx="6" cy="67" r="1" fill="#FFFFFF"/>
      <circle cx="28" cy="58" r="1" fill="#FFFFFF"/>
      <circle cx="44" cy="70" r="1" fill="#FFFFFF"/>
      <circle cx="66" cy="62" r="1" fill="#FFFFFF"/>
      <circle cx="93" cy="72" r="1" fill="#FFFFFF"/>
      <circle cx="117" cy="64" r="1" fill="#FFFFFF"/>
      <circle cx="18" cy="85" r="1" fill="#FFFFFF"/>
      <circle cx="37" cy="92" r="1" fill="#FFFFFF"/>
      <circle cx="58" cy="83" r="1" fill="#FFFFFF"/>
      <circle cx="81" cy="96" r="1" fill="#FFFFFF"/>
      <circle cx="103" cy="88" r="1" fill="#FFFFFF"/>
      <circle cx="13" cy="108" r="1" fill="#FFFFFF"/>
      <circle cx="49" cy="112" r="1" fill="#FFFFFF"/>
      <circle cx="72" cy="106" r="1" fill="#FFFFFF"/>
      <circle cx="96" cy="114" r="1" fill="#FFFFFF"/>
      <circle cx="114" cy="103" r="1" fill="#FFFFFF"/>
    </pattern>
  </defs>
</svg>
