<svg width="1920" height="1080" viewBox="0 0 1920 1080" fill="none" xmlns="http://www.w3.org/2000/svg">
  <rect width="1920" height="1080" fill="#020617"/>
  <rect width="1920" height="1080" fill="url(#grad-main)"/>
  <ellipse cx="960" cy="120" rx="820" ry="300" fill="url(#glow-top)" opacity="0.7"/>
  <ellipse cx="960" cy="980" rx="980" ry="300" fill="url(#glow-bottom)" opacity="0.65"/>
  <ellipse cx="300" cy="420" rx="280" ry="220" fill="url(#glow-left)" opacity="0.35"/>
  <ellipse cx="1620" cy="380" rx="300" ry="220" fill="url(#glow-right)" opacity="0.3"/>
  <rect width="1920" height="1080" fill="url(#grain)" opacity="0.12"/>
  <defs>
    <linearGradient id="grad-main" x1="0" y1="0" x2="1920" y2="1080" gradientUnits="userSpaceOnUse">
      <stop stop-color="#020617"/>
      <stop offset="0.45" stop-color="#020B1F"/>
      <stop offset="1" stop-color="#031335"/>
    </linearGradient>
    <radialGradient id="glow-top" cx="0" cy="0" r="1" gradientUnits="userSpaceOnUse" gradientTransform="translate(960 120) rotate(90) scale(300 820)">
      <stop stop-color="#0EA5E9" stop-opacity="0.35"/>
      <stop offset="1" stop-color="#0EA5E9" stop-opacity="0"/>
    </radialGradient>
    <radialGradient id="glow-bottom" cx="0" cy="0" r="1" gradientUnits="userSpaceOnUse" gradientTransform="translate(960 980) rotate(90) scale(300 980)">
      <stop stop-color="#1D4ED8" stop-opacity="0.32"/>
      <stop offset="1" stop-color="#1D4ED8" stop-opacity="0"/>
    </radialGradient>
    <radialGradient id="glow-left" cx="0" cy="0" r="1" gradientUnits="userSpaceOnUse" gradientTransform="translate(300 420) rotate(90) scale(220 280)">
      <stop stop-color="#1E3A8A" stop-opacity="0.3"/>
      <stop offset="1" stop-color="#1E3A8A" stop-opacity="0"/>
    </radialGradient>
    <radialGradient id="glow-right" cx="0" cy="0" r="1" gradientUnits="userSpaceOnUse" gradientTransform="translate(1620 380) rotate(90) scale(220 300)">
      <stop stop-color="#2563EB" stop-opacity="0.28"/>
      <stop offset="1" stop-color="#2563EB" stop-opacity="0"/>
    </radialGradient>
    <pattern id="grain" x="0" y="0" width="120" height="120" patternUnits="userSpaceOnUse">
      <circle cx="8" cy="7" r="1" fill="#FFFFFF"/>
      <circle cx="22" cy="19" r="1" fill="#FFFFFF"/>
      <circle cx="41" cy="16" r="1" fill="#FFFFFF"/>
      <circle cx="63" cy="10" r="1" fill="#FFFFFF"/>
      <circle cx="79" cy="21" r="1" fill="#FFFFFF"/>
      <circle cx="98" cy="15" r="1" fill="#FFFFFF"/>
      <circle cx="112" cy="27" r="1" fill="#FFFFFF"/>
      <circle cx="14" cy="42" r="1" fill="#FFFFFF"/>
      <circle cx="31" cy="35" r="1" fill="#FFFFFF"/>
      <circle cx="52" cy="47" r="1" fill="#FFFFFF"/>
      <circle cx="74" cy="39" r="1" fill="#FFFFFF"/>
      <circle cx="87" cy="49" r="1" fill="#FFFFFF"/>
      <circle cx="109" cy="44" r="1" fill="#FFFFFF"/>
      <circle cx="6" cy="67" r="1" fill="#FFFFFF"/>
      <circle cx="28" cy="58" r="1" fill="#FFFFFF"/>
      <circle cx="44" cy="70" r="1" fill="#FFFFFF"/>
      <circle cx="66" cy="62" r="1" fill="#FFFFFF"/>
      <circle cx="93" cy="72" r="1" fill="#FFFFFF"/>
      <circle cx="117" cy="64" r="1" fill="#FFFFFF"/>
      <circle cx="18" cy="85" r="1" fill="#FFFFFF"/>
      <circle cx="37" cy="92" r="1" fill="#FFFFFF"/>
      <circle cx="58" cy="83" r="1" fill="#FFFFFF"/>
      <circle cx="81" cy="96" r="1" fill="#FFFFFF"/>
      <circle cx="103" cy="88" r="1" fill="#FFFFFF"/>
      <circle cx="13" cy="108" r="1" fill="#FFFFFF"/>
      <circle cx="49" cy="112" r="1" fill="#FFFFFF"/>
      <circle cx="72" cy="106" r="1" fill="#FFFFFF"/>
      <circle cx="96" cy="114" r="1" fill="#FFFFFF"/>
      <circle cx="114" cy="103" r="1" fill="#FFFFFF"/>
    </pattern>
  </defs>
</svg>
